<?xml version="1.0" standalone="no"?>
<!DOCTYPE svg PUBLIC "-//W3C//DTD SVG 20010904//EN"
 "http://www.w3.org/TR/2001/REC-SVG-20010904/DTD/svg10.dtd">
<svg version="1.0" xmlns="http://www.w3.org/2000/svg"
 width="512.000000pt" height="512.000000pt" viewBox="0 0 512.000000 512.000000"
 preserveAspectRatio="xMidYMid meet">

<g transform="translate(0.000000,512.000000) scale(0.100000,-0.100000)"
fill="#fff" stroke="none">
<path d="M0 4370 l0 -750 150 0 150 0 0 600 0 600 600 0 600 0 0 150 0 150
-750 0 -750 0 0 -750z"/>
<path d="M3620 4970 l0 -150 600 0 600 0 0 -600 0 -600 150 0 150 0 0 750 0
750 -750 0 -750 0 0 -150z"/>
<path d="M2410 4357 l0 -154 -85 -12 c-716 -100 -1296 -680 -1396 -1396 l-12
-85 -154 0 -153 0 0 -150 0 -150 153 0 154 0 12 -85 c100 -716 680 -1296 1396
-1396 l85 -12 0 -154 0 -153 150 0 150 0 0 153 0 154 85 12 c716 100 1296 680
1396 1396 l12 85 154 0 153 0 0 150 0 150 -153 0 -154 0 -12 85 c-100 716
-680 1296 -1396 1396 l-85 12 0 154 0 153 -150 0 -150 0 0 -153z m0 -607 l0
-150 -27 -5 c-228 -47 -412 -143 -563 -295 -152 -151 -248 -335 -295 -562 l-5
-28 -151 0 -150 0 6 48 c62 447 377 855 800 1040 79 34 224 78 300 91 93 16
85 30 85 -139z m470 119 c378 -94 699 -347 878 -691 66 -129 119 -292 137
-420 l6 -48 -150 0 -151 0 -5 28 c-47 227 -143 411 -295 562 -151 152 -335
248 -562 295 l-28 5 0 151 0 150 48 -6 c26 -4 81 -15 122 -26z m-135 -582
c269 -75 478 -288 546 -557 8 -31 14 -105 14 -170 0 -123 -12 -188 -53 -285
-93 -219 -290 -387 -522 -446 -71 -18 -269 -18 -340 0 -232 59 -429 227 -522
446 -41 97 -53 162 -53 285 0 123 12 188 53 285 93 220 305 400 522 444 30 6
64 13 75 15 37 9 229 -3 280 -17z m-1220 -904 c47 -228 143 -412 295 -563 151
-152 335 -248 563 -295 l27 -5 0 -151 0 -150 -47 6 c-129 18 -292 71 -421 137
-381 197 -659 586 -717 1001 l-6 47 150 0 151 0 5 -27z m2370 -20 c-29 -208
-125 -435 -262 -617 -205 -274 -543 -475 -875 -521 l-48 -6 0 150 0 151 28 5
c191 39 340 108 485 225 190 153 313 362 371 633 l6 27 151 0 150 0 -6 -47z"/>
<path d="M2410 2560 l0 -150 150 0 150 0 0 150 0 150 -150 0 -150 0 0 -150z"/>
<path d="M0 750 l0 -750 750 0 750 0 0 150 0 150 -600 0 -600 0 0 600 0 600
-150 0 -150 0 0 -750z"/>
<path d="M4820 900 l0 -600 -600 0 -600 0 0 -150 0 -150 750 0 750 0 0 750 0
750 -150 0 -150 0 0 -600z"/>
</g>
</svg>
